# xmcd
#
# Track frame offsets:
#	182
#	11220
#	21975
#	33165
#	46437
#	65360
#	74470
#	87860
#	100522
#	114417
#	125847
#	135355
#	147477
#	159317
#	172012
#	186582
#	197532
#	209760
#	220690
#	229905
#	239655
#	251467
#	262445
#
# Disc length: 3652 seconds
#
# Revision: 1
# Processed by: cddbd v1.5.2PL0 Copyright (c) Steve Scherf et al.
# Submitted via: audiograbber 1.83.01
#
DISCID=5f0e4217
DTITLE=Slim Whitman - Reader's Digest Country Classics [Disc 1]
DYEAR=1995
DGENRE=Country
TTITLE0=Rose Marie
TTITLE1=Tumbling Tumbleweeds
TTITLE2=The Wayward Wind
TTITLE3=She Thinks I Still Care
TTITLE4=Home On The Range
TTITLE5=Ramblin' Rose
TTITLE6=Just Out Of Reach
TTITLE7=More Than Yesterday
TTITLE8=Another Tomorrow
TTITLE9=Down In The Valley
TTITLE10=Please Help Me, I'm Falling
TTITLE11=Blue Eyes Crying In The Rain
TTITLE12=Bouquet Of Roses
TTITLE13=A Satisfied Mind
TTITLE14=As You Take A Walk Through My Mind
TTITLE15=Tears On My Pillow
TTITLE16=It Keeps Right On A-Hurtin'
TTITLE17=The Most Beautifull Girl
TTITLE18=A Little Bitty Tear
TTITLE19=From A Jack To A King
TTITLE20=Tomorrow Never Comes
TTITLE21=Happy Street
TTITLE22=Happy Anniversary
EXTD=YEAR: 1995
EXTT0=
EXTT1=
EXTT2=
EXTT3=
EXTT4=
EXTT5=
EXTT6=
EXTT7=
EXTT8=
EXTT9=
EXTT10=
EXTT11=
EXTT12=
EXTT13=
EXTT14=
EXTT15=
EXTT16=
EXTT17=
EXTT18=
EXTT19=
EXTT20=
EXTT21=
EXTT22=
PLAYORDER=
